<svg width="98" height="96" xmlns="http://www.w3.org/2000/svg" xmlns:xlink="http://www.w3.org/1999/xlink" overflow="hidden"><defs><clipPath id="clip0"><rect x="322" y="480" width="98" height="96"/></clipPath><clipPath id="clip1"><rect x="323" y="480" width="96" height="96"/></clipPath><clipPath id="clip2"><rect x="323" y="480" width="96" height="96"/></clipPath><clipPath id="clip3"><rect x="323" y="480" width="96" height="96"/></clipPath></defs><g clip-path="url(#clip0)" transform="translate(-322 -480)"><g clip-path="url(#clip1)"><g clip-path="url(#clip2)"><g clip-path="url(#clip3)"><path d="M415 528C415 525.8 413.2 524 411 524 410.2 524 409.5 524.2 408.9 524.6L391.8 534.4C392 535.5 392 536.6 391.8 537.8 391 541.5 387.5 544 383.7 544L366 544 366 540 384 540C386.2 540 388 538.2 388 536 388 533.8 386.2 532 384 532 384 532 360.2 532 360 532 358.3 532 356.7 532.5 355.3 533.3L327 547 341 561C347.5 554.5 355.9 552 365 552L383.7 552C384.6 552 385.4 551.7 386.1 551.2L413.6 531.1C414.4 530.3 415 529.2 415 528Z" fill="#70AD47" fill-rule="nonzero" fill-opacity="1"/><path d="M401.1 495.2C401.1 495.2 388.7 493.6 382.1 500.2 377.3 505 376.8 512.7 376.9 516.7 374.8 518.2 373 520.4 371.8 523 371.5 522.6 371.3 522.2 371 521.8 371.1 518.5 370.6 512.2 366.7 508.3 361.2 502.8 351 504.2 351 504.2 351 504.2 349.7 514.4 355.1 519.9 358.6 523.4 364.2 524.1 367.6 524.2 368.6 525.3 369.3 526.9 369.8 528.3 369.9 528.6 370 529.3 370 530.2L374.1 530.2C374.2 528.1 374.5 526.9 375.3 525.2 376.3 522.8 378 520.8 380 519.6 384.1 519.7 391.5 519 396.1 514.4 402.7 507.6 401.1 495.2 401.1 495.2Z" fill="#70AD47" fill-rule="nonzero" fill-opacity="1"/></g></g></g></g></svg>